<?xml version="1.0" encoding="UTF-8"?>
<svg id="Capa_1" data-name="Capa 1" xmlns="http://www.w3.org/2000/svg" viewBox="0 0 768 612">
  <rect y="3.14" width="766.81" height="605.72" rx="16.62" ry="16.62" style="fill: #e4f9f9;"/>
  <rect x="35.33" y="299.43" width="697.34" height="275.64" rx="21.59" ry="21.59" style="fill: #f4c24e;"/>
  <g>
    <rect x="132.39" y="491.73" width="90.16" height="4.32" transform="translate(-316.42 671.36) rotate(-90)" style="fill: #498974;"/>
    <rect x="126.17" y="526.45" width="103.3" height="4.32" style="fill: #498974;"/>
    <rect x="121.55" y="531.14" width="13.57" height="4.32" transform="translate(-404.97 661.63) rotate(-90)" style="fill: #498974;"/>
    <rect x="220.54" y="531.05" width="13.57" height="4.32" transform="translate(-305.88 760.54) rotate(-90)" style="fill: #498974;"/>
    <circle cx="128.36" cy="549.96" r="11.08" style="fill: #498974;"/>
    <circle cx="177.54" cy="548.99" r="11.08" style="fill: #498974;"/>
    <circle cx="227.44" cy="549.7" r="11.08" style="fill: #498974;"/>
  </g>
  <text transform="translate(222.43 555.25)" style="fill: #fff; font-family: Montserrat-SemiBold, Montserrat; font-size: 15.95px; font-weight: 600;"><tspan x="0" y="0">P</tspan></text>
  <g>
    <rect x="338.21" y="491.73" width="90.16" height="4.32" transform="translate(-110.6 877.18) rotate(-90)" style="fill: #498974;"/>
    <rect x="331.98" y="526.45" width="103.3" height="4.32" style="fill: #498974;"/>
    <rect x="327.36" y="531.14" width="13.57" height="4.32" transform="translate(-199.15 867.44) rotate(-90)" style="fill: #498974;"/>
    <rect x="426.36" y="531.05" width="13.57" height="4.32" transform="translate(-100.07 966.36) rotate(-90)" style="fill: #498974;"/>
    <circle cx="334.17" cy="549.96" r="11.08" style="fill: #498974;"/>
    <circle cx="383.35" cy="548.99" r="11.08" style="fill: #498974;"/>
    <circle cx="433.25" cy="549.7" r="11.08" style="fill: #498974;"/>
  </g>
  <text transform="translate(328.66 555.25)" style="fill: #fff; font-family: Montserrat-SemiBold, Montserrat; font-size: 15.95px; font-weight: 600;"><tspan x="0" y="0">P</tspan></text>
  <text transform="translate(378.45 555.25)" style="fill: #fff; font-family: Montserrat-SemiBold, Montserrat; font-size: 15.95px; font-weight: 600;"><tspan x="0" y="0">P</tspan></text>
  <text transform="translate(428.25 555.25)" style="fill: #fff; font-family: Montserrat-SemiBold, Montserrat; font-size: 15.95px; font-weight: 600;"><tspan x="0" y="0">P</tspan></text>
  <g>
    <rect x="544.8" y="491.73" width="90.16" height="4.32" transform="translate(95.99 1083.77) rotate(-90)" style="fill: #498974;"/>
    <rect x="538.58" y="526.45" width="103.3" height="4.32" style="fill: #498974;"/>
    <rect x="533.96" y="531.14" width="13.57" height="4.32" transform="translate(7.44 1074.04) rotate(-90)" style="fill: #498974;"/>
    <rect x="632.95" y="531.05" width="13.57" height="4.32" transform="translate(106.53 1172.95) rotate(-90)" style="fill: #498974;"/>
    <circle cx="540.77" cy="549.96" r="11.08" style="fill: #498974;"/>
    <circle cx="589.95" cy="548.99" r="11.08" style="fill: #498974;"/>
    <circle cx="639.85" cy="549.7" r="11.08" style="fill: #498974;"/>
  </g>
  <text transform="translate(535.25 555.25)" style="fill: #fff; font-family: Montserrat-SemiBold, Montserrat; font-size: 15.95px; font-weight: 600;"><tspan x="0" y="0">P</tspan></text>
  <text transform="translate(585.05 555.25)" style="fill: #fff; font-family: Montserrat-SemiBold, Montserrat; font-size: 15.95px; font-weight: 600;"><tspan x="0" y="0">P</tspan></text>
  <text transform="translate(634.84 555.25)" style="fill: #fff; font-family: Montserrat-SemiBold, Montserrat; font-size: 15.95px; font-weight: 600;"><tspan x="0" y="0">P</tspan></text>
  <rect x="175.2" y="318.01" width="416.65" height="4.32" style="fill: #498974;"/>
  <rect x="145.61" y="350.28" width="63.52" height="4.32" transform="translate(-175.08 529.8) rotate(-90)" style="fill: #498974;"/>
  <rect x="317.22" y="384.73" width="132.41" height="4.32" transform="translate(-3.46 770.32) rotate(-90)" style="fill: #498974;"/>
  <rect x="558.08" y="350.15" width="63.25" height="4.32" transform="translate(237.39 942.01) rotate(-90)" style="fill: #498974;"/>
  <rect x="342.88" y="334.46" width="82.22" height="32.51" rx="3.27" ry="3.27" style="fill: #d3f4e9;"/>
  <rect x="548.56" y="334.46" width="82.22" height="32.51" rx="3.27" ry="3.27" style="fill: #d3f4e9;"/>
  <rect x="329.47" y="379.75" width="109.05" height="45.82" rx="4.47" ry="4.47" style="fill: #d3f4e9;"/>
  <rect x="535.15" y="379.75" width="109.05" height="45.82" rx="4.47" ry="4.47" style="fill: #d3f4e9;"/>
  <rect x="329.01" y="466.7" width="109.05" height="45.82" rx="4.47" ry="4.47" style="fill: #d3f4e9;"/>
  <rect x="535.15" y="466.7" width="109.05" height="45.82" rx="4.47" ry="4.47" style="fill: #d3f4e9;"/>
  <rect x="192.85" y="216.47" width="200.14" height="4.32" transform="translate(74.29 511.55) rotate(-90)" style="fill: #498974;"/>
  <rect x="224.67" y="30.76" width="111.87" height="42.46" rx="21.23" ry="21.23" style="fill: #498974;"/>
  <rect x="120.9" y="97.48" width="111.87" height="42.46" rx="21.23" ry="21.23" style="fill: #498974;"/>
  <rect x="188.4" y="228.64" width="208.11" height="45.52" rx="12" ry="12" style="fill: #99c5c6;"/>
  <rect x="188.4" y="170.11" width="208.11" height="45.52" rx="12" ry="12" style="fill: #99c5c6;"/>
  <text transform="translate(255.54 56.46)" style="fill: #fff; font-family: Montserrat-SemiBold, Montserrat; font-size: 15.95px; font-weight: 600;"><tspan x="0" y="0" style="letter-spacing: 0em;">V</tspan><tspan x="11.47" y="0" style="letter-spacing: 0em;">isión</tspan></text>
  <text transform="translate(146.83 124.48)" style="fill: #fff; font-family: Montserrat-SemiBold, Montserrat; font-size: 15.95px; font-weight: 600;"><tspan x="0" y="0" style="letter-spacing: -.06em;">V</tspan><tspan x="10.75" y="0">alo</tspan><tspan x="35.33" y="0" style="letter-spacing: 0em;">r</tspan><tspan x="41.87" y="0">es</tspan></text>
  <text transform="translate(220.95 199.97)" style="font-family: Montserrat-SemiBold, Montserrat; font-size: 15.95px; font-weight: 600;"><tspan x="0" y="0" style="letter-spacing: -.01em;">P</tspan><tspan x="11.39" y="0">olítica can</tspan><tspan x="95.5" y="0" style="letter-spacing: -.02em;">t</tspan><tspan x="101.98" y="0">onal</tspan></text>
  <text transform="translate(214.89 255.86)" style="font-family: Montserrat-SemiBold, Montserrat; font-size: 15.95px; font-weight: 600;"><tspan x="0" y="0" style="letter-spacing: 0em;">E</tspan><tspan x="10.61" y="0">st</tspan><tspan x="25.59" y="0" style="letter-spacing: -.04em;">r</tspan><tspan x="31.6" y="0">a</tspan><tspan x="41.28" y="0" style="letter-spacing: -.02em;">t</tspan><tspan x="47.76" y="0" style="letter-spacing: 0em;">egia ge</tspan><tspan x="108.44" y="0" style="letter-spacing: 0em;">n</tspan><tspan x="119.39" y="0">e</tspan><tspan x="129.31" y="0" style="letter-spacing: -.04em;">r</tspan><tspan x="135.32" y="0">al</tspan></text>
  <text transform="translate(367.5 354.72)" style="font-family: Montserrat-Medium, Montserrat; font-size: 15.95px; font-weight: 500;"><tspan x="0" y="0">Ejes</tspan></text>
  <text transform="translate(345.78 398.39)" style="font-family: Montserrat-Medium, Montserrat; font-size: 15.95px; font-weight: 500;"><tspan x="0" y="0">Objeti</tspan><tspan x="49.63" y="0" style="letter-spacing: -.01em;">v</tspan><tspan x="58.3" y="0">os </tspan><tspan x="-1.26" y="19.14">gene</tspan><tspan x="40.13" y="19.14" style="letter-spacing: -.05em;">r</tspan><tspan x="45.94" y="19.14" style="letter-spacing: 0em;">ales</tspan></text>
  <text transform="translate(573.19 354.72)" style="font-family: Montserrat-Medium, Montserrat; font-size: 15.95px; font-weight: 500;"><tspan x="0" y="0">Ejes</tspan></text>
  <text transform="translate(551.46 398.39)" style="font-family: Montserrat-Medium, Montserrat; font-size: 15.95px; font-weight: 500;"><tspan x="0" y="0">Objeti</tspan><tspan x="49.63" y="0" style="letter-spacing: -.01em;">v</tspan><tspan x="58.3" y="0">os </tspan><tspan x="-1.26" y="19.14">gene</tspan><tspan x="40.13" y="19.14" style="letter-spacing: -.05em;">r</tspan><tspan x="45.94" y="19.14" style="letter-spacing: 0em;">ales</tspan></text>
  <text transform="translate(345.79 485.08)" style="font-family: Montserrat-Medium, Montserrat; font-size: 15.95px; font-weight: 500;"><tspan x="0" y="0">Objeti</tspan><tspan x="49.63" y="0" style="letter-spacing: -.01em;">v</tspan><tspan x="58.3" y="0">os </tspan><tspan x="-6.36" y="19.14">específi</tspan><tspan x="55.68" y="19.14" style="letter-spacing: 0em;">c</tspan><tspan x="64.66" y="19.14">os</tspan></text>
  <text transform="translate(551.46 485.08)" style="font-family: Montserrat-Medium, Montserrat; font-size: 15.95px; font-weight: 500;"><tspan x="0" y="0">Objeti</tspan><tspan x="49.63" y="0" style="letter-spacing: -.01em;">v</tspan><tspan x="58.3" y="0">os </tspan><tspan x="-6.36" y="19.14">específi</tspan><tspan x="55.68" y="19.14" style="letter-spacing: 0em;">c</tspan><tspan x="64.66" y="19.14">os</tspan></text>
  <ellipse cx="589" cy="154.28" rx="150.99" ry="63.93" style="fill: #f0a758;"/>
  <text transform="translate(471.8 142.96)" style="font-family: Montserrat-SemiBold, Montserrat; font-size: 18px; font-weight: 600;"><tspan x="0" y="0">Se ini</tspan><tspan x="50.22" y="0" style="letter-spacing: 0em;">c</tspan><tspan x="60.59" y="0">ia </tspan><tspan x="81.68" y="0" style="letter-spacing: 0em;">c</tspan><tspan x="92" y="0">on los p</tspan><tspan x="164.3" y="0" style="letter-spacing: 0em;">r</tspan><tspan x="171.68" y="0" style="letter-spacing: -.02em;">oy</tspan><tspan x="193.15" y="0">e</tspan><tspan x="204.35" y="0" style="letter-spacing: 0em;">c</tspan><tspan x="214.93" y="0" style="letter-spacing: -.02em;">t</tspan><tspan x="222.24" y="0">os </tspan><tspan x="9.6" y="21.6">y se </tspan><tspan x="50.41" y="21.6" style="letter-spacing: -.02em;">v</tspan><tspan x="60.51" y="21.6">a </tspan><tspan x="76.4" y="21.6" style="letter-spacing: 0em;">c</tspan><tspan x="86.71" y="21.6">onstru</tspan><tspan x="147.37" y="21.6" style="letter-spacing: -.02em;">y</tspan><tspan x="157.51" y="21.6">e</tspan><tspan x="168.7" y="21.6" style="letter-spacing: 0em;">n</tspan><tspan x="181.05" y="21.6">do en </tspan><tspan x="16.81" y="43.2">una </tspan><tspan x="57.29" y="43.2" style="letter-spacing: 0em;">r</tspan><tspan x="64.67" y="43.2">el</tspan><tspan x="81.07" y="43.2" style="letter-spacing: 0em;">a</tspan><tspan x="92.01" y="43.2" style="letter-spacing: 0em;">c</tspan><tspan x="102.38" y="43.2">ión </tspan><tspan x="136.49" y="43.2" style="letter-spacing: 0em;">m</tspan><tspan x="155.46" y="43.2">edio</tspan><tspan x="195.84" y="43.2" style="letter-spacing: -.03em;">/</tspan><tspan x="202.06" y="43.2">fin</tspan></text>
  <rect x="330.17" y="46.82" width="67.76" height="4.32" style="fill: #498974;"/>
  <rect x="358.5" y="82.43" width="74.53" height="4.32" transform="translate(311.18 480.36) rotate(-90)" style="fill: #498974;"/>
  <rect x="339.3" y="64.32" width="111.87" height="42.46" rx="21.23" ry="21.23" style="fill: #498974;"/>
  <text transform="translate(367.12 90.95)" style="fill: #fff; font-family: Montserrat-SemiBold, Montserrat; font-size: 15.95px; font-weight: 600;"><tspan x="0" y="0">Misión</tspan></text>
  <rect x="231.22" y="117.62" width="166.71" height="4.32" style="fill: #498974;"/>
  <rect x="175.31" y="448.87" width="416.65" height="4.32" style="fill: #498974;"/>
  <rect x="136.51" y="334.46" width="82.22" height="32.51" rx="3.27" ry="3.27" style="fill: #d3f4e9;"/>
  <rect x="123.09" y="379.75" width="109.05" height="45.82" rx="4.47" ry="4.47" style="fill: #d3f4e9;"/>
  <rect x="123.09" y="466.7" width="109.05" height="45.82" rx="4.47" ry="4.47" style="fill: #d3f4e9;"/>
  <text transform="translate(161.13 354.72)" style="font-family: Montserrat-Medium, Montserrat; font-size: 15.95px; font-weight: 500;"><tspan x="0" y="0">Ejes</tspan></text>
  <text transform="translate(139.41 398.39)" style="font-family: Montserrat-Medium, Montserrat; font-size: 15.95px; font-weight: 500;"><tspan x="0" y="0">Objeti</tspan><tspan x="49.63" y="0" style="letter-spacing: -.01em;">v</tspan><tspan x="58.3" y="0">os </tspan><tspan x="-1.26" y="19.14">gene</tspan><tspan x="40.13" y="19.14" style="letter-spacing: -.05em;">r</tspan><tspan x="45.94" y="19.14" style="letter-spacing: 0em;">ales</tspan></text>
  <text transform="translate(139.41 485.08)" style="font-family: Montserrat-Medium, Montserrat; font-size: 15.95px; font-weight: 500;"><tspan x="0" y="0">Objeti</tspan><tspan x="49.63" y="0" style="letter-spacing: -.01em;">v</tspan><tspan x="58.3" y="0">os </tspan><tspan x="-6.36" y="19.14">específi</tspan><tspan x="55.68" y="19.14" style="letter-spacing: 0em;">c</tspan><tspan x="64.66" y="19.14">os</tspan></text>
  <text transform="translate(122.84 555.25)" style="fill: #fff; font-family: Montserrat-SemiBold, Montserrat; font-size: 15.95px; font-weight: 600;"><tspan x="0" y="0">P</tspan></text>
  <text transform="translate(172.64 555.25)" style="fill: #fff; font-family: Montserrat-SemiBold, Montserrat; font-size: 15.95px; font-weight: 600;"><tspan x="0" y="0">P</tspan></text>
  <g>
    <path d="M687.33,232.81l-3.89,329.49-3.89-329.49c-.03-2.15,1.7-3.91,3.85-3.94s3.91,1.7,3.94,3.85c0,.02,0,.07,0,.09Z" style="fill: #f0a758;"/>
    <polygon points="669.87 248.74 683.43 235.17 697 248.74 697 237.22 683.43 223.66 669.87 237.22 669.87 248.74" style="fill: #f0a758;"/>
  </g>
</svg>