<?xml version="1.0" encoding="UTF-8"?>
<svg id="Capa_1" data-name="Capa 1" xmlns="http://www.w3.org/2000/svg" viewBox="0 0 768 297.71">
  <rect x="-.68" y="3.23" width="768" height="291.08" rx="11.53" ry="11.53" style="fill: #fff;"/>
  <rect x="388.6" y="8.83" width="368.02" height="268.79" rx="109.35" ry="109.35" style="fill: #e3f4ba;"/>
  <ellipse cx="574.15" cy="143.56" rx="52.52" ry="47.46" style="fill: #e9fff7;"/>
  <text transform="translate(534.04 132.83)" style="font-family: Montserrat-SemiBold, Montserrat; font-size: 11.71px; font-weight: 600;"><tspan x="0" y="0">Instru</tspan><tspan x="35.65" y="0" style="letter-spacing: 0em;">m</tspan><tspan x="48" y="0">en</tspan><tspan x="63.31" y="0" style="letter-spacing: -.02em;">t</tspan><tspan x="68.06" y="0">os </tspan><tspan x="-6.53" y="14.06">de seguimien</tspan><tspan x="75.87" y="14.06" style="letter-spacing: -.02em;">t</tspan><tspan x="80.63" y="14.06">o </tspan><tspan x="3.3" y="28.11">y </tspan><tspan x="13.31" y="28.11" style="letter-spacing: -.01em;">e</tspan><tspan x="20.47" y="28.11" style="letter-spacing: -.02em;">v</tspan><tspan x="27.05" y="28.11" style="letter-spacing: 0em;">alu</tspan><tspan x="45.52" y="28.11" style="letter-spacing: 0em;">a</tspan><tspan x="52.64" y="28.11" style="letter-spacing: 0em;">c</tspan><tspan x="59.39" y="28.11">ión</tspan></text>
  <rect x="524.95" y="24.66" width="98.39" height="56.22" rx="5.48" ry="5.48" style="fill: #498974;"/>
  <text transform="translate(545.52 42.19)" style="fill: #fff; font-family: Montserrat-SemiBold, Montserrat; font-size: 11.71px; font-weight: 600;"><tspan x="0" y="0">Lí</tspan><tspan x="10.4" y="0" style="letter-spacing: 0em;">n</tspan><tspan x="18.44" y="0" style="letter-spacing: -.02em;">e</tspan><tspan x="25.55" y="0">as de </tspan><tspan x="8.85" y="14.06" style="letter-spacing: 0em;">a</tspan><tspan x="15.98" y="14.06" style="letter-spacing: 0em;">c</tspan><tspan x="22.69" y="14.06" style="letter-spacing: 0em;">c</tspan><tspan x="29.43" y="14.06">ión </tspan><tspan x="-8.03" y="28.11">est</tspan><tspan x="10.25" y="28.11" style="letter-spacing: -.04em;">r</tspan><tspan x="14.67" y="28.11">a</tspan><tspan x="21.78" y="28.11" style="letter-spacing: -.02em;">t</tspan><tspan x="26.54" y="28.11">égicas</tspan></text>
  <rect x="524.95" y="201.41" width="98.39" height="56.22" rx="5.48" ry="5.48" style="fill: #498974;"/>
  <text transform="translate(541.67 225.82)" style="fill: #fff; font-family: Montserrat-SemiBold, Montserrat; font-size: 11.71px; font-weight: 600;"><tspan x="0" y="0">Mé</tspan><tspan x="18.47" y="0" style="letter-spacing: -.02em;">t</tspan><tspan x="23.23" y="0">odo de </tspan><tspan x="10.96" y="14.06">cálculo</tspan></text>
  <rect x="640.68" y="65.03" width="98.39" height="56.22" rx="5.48" ry="5.48" style="fill: #498974;"/>
  <text transform="translate(671.58 94.59)" style="fill: #fff; font-family: Montserrat-SemiBold, Montserrat; font-size: 11.71px; font-weight: 600;"><tspan x="0" y="0">Metas</tspan></text>
  <rect x="639.94" y="157.38" width="98.39" height="56.22" rx="5.48" ry="5.48" style="fill: #498974;"/>
  <text transform="translate(653.71 186.94)" style="fill: #fff; font-family: Montserrat-SemiBold, Montserrat; font-size: 11.71px; font-weight: 600;"><tspan x="0" y="0">I</tspan><tspan x="3.74" y="0" style="letter-spacing: 0em;">n</tspan><tspan x="11.77" y="0">dic</tspan><tspan x="30.01" y="0" style="letter-spacing: 0em;">a</tspan><tspan x="37.13" y="0">do</tspan><tspan x="52.73" y="0" style="letter-spacing: -.01em;">r</tspan><tspan x="57.53" y="0">es</tspan></text>
  <rect x="407.36" y="65.03" width="98.39" height="56.22" rx="5.48" ry="5.48" style="fill: #498974;"/>
  <text transform="translate(419.38 81.7)" style="fill: #fff; font-family: Montserrat-SemiBold, Montserrat; font-size: 11.71px; font-weight: 600;"><tspan x="0" y="0" style="letter-spacing: -.02em;">C</tspan><tspan x="8.28" y="0">o</tspan><tspan x="15.84" y="0" style="letter-spacing: 0em;">n</tspan><tspan x="23.87" y="0">di</tspan><tspan x="35.3" y="0" style="letter-spacing: 0em;">c</tspan><tspan x="42.05" y="0">io</tspan><tspan x="52.99" y="0" style="letter-spacing: 0em;">n</tspan><tspan x="61.02" y="0">es </tspan><tspan x="7.74" y="14.06">de </tspan><tspan x="26.3" y="14.06" style="letter-spacing: -.02em;">é</tspan><tspan x="33.41" y="14.06">xi</tspan><tspan x="43.51" y="14.06" style="letter-spacing: -.02em;">t</tspan><tspan x="48.26" y="14.06">o o </tspan><tspan x="6.33" y="28.11">supues</tspan><tspan x="49.67" y="28.11" style="letter-spacing: -.02em;">t</tspan><tspan x="54.42" y="28.11">os</tspan></text>
  <rect x="406.62" y="157.38" width="98.39" height="56.22" rx="5.48" ry="5.48" style="fill: #498974;"/>
  <text transform="translate(424.79 181.79)" style="fill: #fff; font-family: Montserrat-SemiBold, Montserrat; font-size: 11.71px; font-weight: 600;"><tspan x="0" y="0">Medios de </tspan><tspan x="-3.73" y="14.06" style="letter-spacing: -.02em;">v</tspan><tspan x="2.86" y="14.06">e</tspan><tspan x="10.15" y="14.06" style="letter-spacing: 0em;">r</tspan><tspan x="15.01" y="14.06">ific</tspan><tspan x="32.95" y="14.06" style="letter-spacing: 0em;">a</tspan><tspan x="40.08" y="14.06" style="letter-spacing: 0em;">c</tspan><tspan x="46.82" y="14.06">ión</tspan></text>
  <rect x="13.88" y="14.79" width="363.99" height="267.73" rx="16.63" ry="16.63" style="fill: #e3f4ba;"/>
  <ellipse cx="195.88" cy="188.06" rx="47.3" ry="27.99" style="fill: #f4e2a6;"/>
  <text transform="translate(180.65 182.52)" style="font-family: Montserrat-SemiBold, Montserrat; font-size: 10.55px; font-weight: 600;"><tspan x="0" y="0">Á</tspan><tspan x="7.9" y="0" style="letter-spacing: 0em;">r</tspan><tspan x="12.23" y="0" style="letter-spacing: -.01em;">e</tspan><tspan x="18.63" y="0">as</tspan><tspan x="-18.01" y="12.66" style="letter-spacing: 0em;">E</tspan><tspan x="-10.99" y="12.66">st</tspan><tspan x="-1.09" y="12.66" style="letter-spacing: -.04em;">r</tspan><tspan x="2.89" y="12.66">a</tspan><tspan x="9.29" y="12.66" style="letter-spacing: -.02em;">t</tspan><tspan x="13.58" y="12.66" style="letter-spacing: 0em;">égicas</tspan></text>
  <rect x="145.87" y="30.05" width="100.01" height="25.97" rx="6.8" ry="6.8" style="fill: #8dc4b3;"/>
  <text transform="translate(178.06 48.07)" style="font-family: Montserrat-SemiBold, Montserrat; font-size: 10.55px; font-weight: 600;"><tspan x="0" y="0">Misión</tspan></text>
  <rect x="145.87" y="62.14" width="100.01" height="25.97" rx="6.8" ry="6.8" style="fill: #8dc4b3;"/>
  <text transform="translate(179.31 79.1)" style="font-family: Montserrat-SemiBold, Montserrat; font-size: 10.55px; font-weight: 600;"><tspan x="0" y="0" style="letter-spacing: 0em;">V</tspan><tspan x="7.58" y="0">isión</tspan></text>
  <rect x="145.87" y="94.22" width="100.01" height="25.97" rx="6.8" ry="6.8" style="fill: #8dc4b3;"/>
  <text transform="translate(176.04 110.77)" style="font-family: Montserrat-SemiBold, Montserrat; font-size: 10.55px; font-weight: 600;"><tspan x="0" y="0" style="letter-spacing: -.05em;">V</tspan><tspan x="7.11" y="0">alo</tspan><tspan x="23.37" y="0" style="letter-spacing: 0em;">r</tspan><tspan x="27.69" y="0">es</tspan></text>
  <rect x="145.87" y="126.3" width="100.01" height="25.97" rx="6.8" ry="6.8" style="fill: #8dc4b3;"/>
  <text transform="translate(168.42 136.16)" style="font-family: Montserrat-SemiBold, Montserrat; font-size: 10.55px; font-weight: 600;"><tspan x="0" y="0" style="letter-spacing: 0em;">E</tspan><tspan x="7.02" y="0">st</tspan><tspan x="16.92" y="0" style="letter-spacing: -.04em;">r</tspan><tspan x="20.9" y="0">a</tspan><tspan x="27.3" y="0" style="letter-spacing: -.02em;">t</tspan><tspan x="31.59" y="0" style="letter-spacing: 0em;">egia </tspan><tspan x="-6.29" y="12.66">institu</tspan><tspan x="28.6" y="12.66" style="letter-spacing: 0em;">c</tspan><tspan x="34.68" y="12.66">ional</tspan></text>
  <rect x="272.77" y="151.83" width="88.62" height="50.64" rx="8.94" ry="8.94" style="fill: #498974;"/>
  <rect x="30" y="151.83" width="88.62" height="50.64" rx="8.94" ry="8.94" style="fill: #498974;"/>
  <text transform="translate(295.04 174.43)" style="fill: #fff; font-family: Montserrat-SemiBold, Montserrat; font-size: 10.55px; font-weight: 600;"><tspan x="0" y="0" style="letter-spacing: -.01em;">P</tspan><tspan x="7.53" y="0">olíticas</tspan><tspan x="-16.78" y="12.66">institu</tspan><tspan x="18.1" y="12.66" style="letter-spacing: 0em;">c</tspan><tspan x="24.18" y="12.66">ionales</tspan></text>
  <text transform="translate(49.25 166.42)" style="fill: #fff; font-family: Montserrat-SemiBold, Montserrat; font-size: 10.55px; font-weight: 600;"><tspan x="0" y="0">Lí</tspan><tspan x="9.37" y="0" style="letter-spacing: 0em;">n</tspan><tspan x="16.6" y="0" style="letter-spacing: -.01em;">e</tspan><tspan x="23.01" y="0">as de </tspan><tspan x="7.98" y="12.66" style="letter-spacing: 0em;">a</tspan><tspan x="14.39" y="12.66" style="letter-spacing: 0em;">c</tspan><tspan x="20.44" y="12.66" style="letter-spacing: 0em;">c</tspan><tspan x="26.51" y="12.66">ión </tspan><tspan x="-7.23" y="25.32">est</tspan><tspan x="9.24" y="25.32" style="letter-spacing: -.04em;">r</tspan><tspan x="13.21" y="25.32">a</tspan><tspan x="19.62" y="25.32" style="letter-spacing: -.02em;">t</tspan><tspan x="23.9" y="25.32">égicas </tspan></text>
  <rect x="218.42" y="219.7" width="88.62" height="50.64" rx="8.94" ry="8.94" style="fill: #498974;"/>
  <rect x="89.34" y="219.7" width="88.62" height="50.64" rx="8.94" ry="8.94" style="fill: #498974;"/>
  <text transform="translate(236.47 242.3)" style="fill: #fff; font-family: Montserrat-SemiBold, Montserrat; font-size: 10.55px; font-weight: 600;"><tspan x="0" y="0">Objeti</tspan><tspan x="33.32" y="0" style="letter-spacing: -.01em;">v</tspan><tspan x="39.26" y="0">os</tspan><tspan x="-7.43" y="12.66">est</tspan><tspan x="9.04" y="12.66" style="letter-spacing: -.04em;">r</tspan><tspan x="13.02" y="12.66">a</tspan><tspan x="19.42" y="12.66" style="letter-spacing: -.02em;">t</tspan><tspan x="23.71" y="12.66">égi</tspan><tspan x="40.64" y="12.66" style="letter-spacing: 0em;">c</tspan><tspan x="46.68" y="12.66">os</tspan></text>
  <text transform="translate(106.42 242.3)" style="fill: #fff; font-family: Montserrat-SemiBold, Montserrat; font-size: 10.55px; font-weight: 600;"><tspan x="0" y="0">Objeti</tspan><tspan x="33.32" y="0" style="letter-spacing: -.01em;">v</tspan><tspan x="39.26" y="0">os</tspan><tspan x="-4.37" y="12.66">específi</tspan><tspan x="37.58" y="12.66" style="letter-spacing: 0em;">c</tspan><tspan x="43.63" y="12.66">os</tspan></text>
  <g>
    <path d="M124.41,65.97c-2.07-2.06-3.91-4.36-5.21-7-1.3-2.62-2.03-5.61-1.69-8.54.31-2.94,1.69-5.62,3.46-7.83,1.73-2.28,4.02-4.01,6.27-5.69-2.14,1.82-4.29,3.68-5.83,6.02-1.59,2.26-2.7,4.88-2.81,7.59-.13,2.7.7,5.35,2.05,7.68,1.34,2.35,3.2,4.38,5.24,6.17h.01c.46.41.5,1.1.1,1.56-.4.46-1.09.5-1.55.1-.02-.01-.04-.03-.05-.05Z" style="fill: #99c5c6;"/>
    <polygon points="124.19 59.02 124.64 64.68 118.97 65.13 121.57 67.34 127.23 66.89 126.78 61.23 124.19 59.02" style="fill: #99c5c6;"/>
  </g>
  <g>
    <path d="M125.79,101.39c-2.07-2.06-3.91-4.36-5.21-7-1.3-2.62-2.03-5.61-1.69-8.54.31-2.94,1.69-5.62,3.46-7.83,1.73-2.28,4.02-4.01,6.27-5.69-2.14,1.82-4.29,3.68-5.83,6.02-1.59,2.26-2.7,4.88-2.81,7.59-.13,2.7.7,5.35,2.05,7.68,1.34,2.34,3.2,4.38,5.24,6.17h.01c.46.41.5,1.1.1,1.56-.4.46-1.09.5-1.55.1-.02-.02-.04-.03-.05-.05Z" style="fill: #99c5c6;"/>
    <polygon points="125.57 94.43 126.02 100.1 120.35 100.54 122.95 102.76 128.61 102.31 128.16 96.64 125.57 94.43" style="fill: #99c5c6;"/>
  </g>
  <g>
    <path d="M125.2,136.81c-2.07-2.06-3.91-4.36-5.21-7-1.3-2.62-2.03-5.61-1.69-8.54.31-2.94,1.69-5.62,3.46-7.83,1.73-2.28,4.02-4.01,6.27-5.69-2.14,1.82-4.29,3.68-5.83,6.02-1.59,2.26-2.7,4.88-2.81,7.59-.13,2.7.7,5.35,2.05,7.68,1.34,2.34,3.2,4.38,5.24,6.17h.01c.46.41.5,1.1.1,1.56-.4.46-1.09.5-1.55.1-.02-.01-.04-.03-.05-.05Z" style="fill: #99c5c6;"/>
    <polygon points="124.98 129.85 125.43 135.52 119.76 135.97 122.36 138.18 128.02 137.73 127.57 132.07 124.98 129.85" style="fill: #99c5c6;"/>
  </g>
  <g>
    <path d="M194.85,58.43l1.03-8.56,1.03,8.56c.07.57-.34,1.09-.91,1.15-.57.07-1.09-.34-1.15-.91,0-.08,0-.17,0-.25Z" style="fill: #f0a758;"/>
    <polygon points="200.7 52.77 195.88 57.59 191.06 52.77 191.06 56.86 195.88 61.69 200.7 56.86 200.7 52.77" style="fill: #f0a758;"/>
  </g>
  <g>
    <path d="M194.85,90.46l1.03-8.56,1.03,8.56c.07.57-.34,1.09-.91,1.15-.57.07-1.09-.34-1.15-.91,0-.08,0-.17,0-.25Z" style="fill: #f0a758;"/>
    <polygon points="200.7 84.79 195.88 89.62 191.06 84.79 191.06 88.89 195.88 93.71 200.7 88.89 200.7 84.79" style="fill: #f0a758;"/>
  </g>
  <g>
    <line x1="188.85" y1="245.61" x2="202.91" y2="245.61" style="fill: none; stroke: #f0a758; stroke-linecap: round; stroke-miterlimit: 10; stroke-width: 2.84px;"/>
    <polygon points="194.52 250.43 189.69 245.61 194.52 240.79 190.42 240.79 185.6 245.61 190.42 250.43 194.52 250.43" style="fill: #f0a758;"/>
    <polygon points="197.24 250.43 202.07 245.61 197.24 240.79 201.34 240.79 206.16 245.61 201.34 250.43 197.24 250.43" style="fill: #f0a758;"/>
  </g>
  <g>
    <line x1="131.88" y1="199.93" x2="141.82" y2="209.87" style="fill: none; stroke: #f0a758; stroke-linecap: round; stroke-miterlimit: 10; stroke-width: 2.84px;"/>
    <polygon points="132.47 207.34 132.47 200.52 139.29 200.52 136.4 197.63 129.58 197.63 129.58 204.45 132.47 207.34" style="fill: #f0a758;"/>
    <polygon points="134.4 209.27 141.22 209.27 141.22 202.45 144.11 205.35 144.11 212.16 137.3 212.16 134.4 209.27" style="fill: #f0a758;"/>
  </g>
  <g>
    <line x1="245.68" y1="164.59" x2="255.62" y2="174.53" style="fill: none; stroke: #f0a758; stroke-linecap: round; stroke-miterlimit: 10; stroke-width: 2.84px;"/>
    <polygon points="246.28 172 246.28 165.18 253.1 165.19 250.2 162.29 243.39 162.29 243.39 169.11 246.28 172" style="fill: #f0a758;"/>
    <polygon points="248.21 173.93 255.03 173.93 255.03 167.11 257.92 170.01 257.92 176.83 251.1 176.83 248.21 173.93" style="fill: #f0a758;"/>
  </g>
  <g>
    <line x1="248.63" y1="209.87" x2="258.57" y2="199.93" style="fill: none; stroke: #f0a758; stroke-linecap: round; stroke-miterlimit: 10; stroke-width: 2.84px;"/>
    <polygon points="256.05 209.27 249.23 209.27 249.23 202.45 246.33 205.35 246.33 212.16 253.15 212.16 256.05 209.27" style="fill: #f0a758;"/>
    <polygon points="257.97 207.34 257.97 200.52 251.16 200.52 254.05 197.63 260.87 197.63 260.87 204.45 257.97 207.34" style="fill: #f0a758;"/>
  </g>
  <g>
    <line x1="133.06" y1="176.67" x2="142.99" y2="166.73" style="fill: none; stroke: #f0a758; stroke-linecap: round; stroke-miterlimit: 10; stroke-width: 2.84px;"/>
    <polygon points="140.47 176.08 133.65 176.08 133.65 169.26 130.76 172.15 130.76 178.97 137.58 178.97 140.47 176.08" style="fill: #f0a758;"/>
    <polygon points="142.4 174.15 142.4 167.33 135.58 167.33 138.47 164.44 145.29 164.44 145.29 171.25 142.4 174.15" style="fill: #f0a758;"/>
  </g>
  <g>
    <line x1="480.38" y1="233.18" x2="490.32" y2="243.11" style="fill: none; stroke: #f0a758; stroke-linecap: round; stroke-miterlimit: 10; stroke-width: 2.84px;"/>
    <polygon points="480.97 240.59 480.97 233.77 487.79 233.77 484.9 230.88 478.08 230.88 478.08 237.7 480.97 240.59" style="fill: #f0a758;"/>
    <polygon points="482.9 242.52 489.72 242.52 489.72 235.7 492.61 238.59 492.61 245.41 485.8 245.41 482.9 242.52" style="fill: #f0a758;"/>
  </g>
  <g>
    <line x1="661.77" y1="39.15" x2="671.71" y2="49.09" style="fill: none; stroke: #f0a758; stroke-linecap: round; stroke-miterlimit: 10; stroke-width: 2.84px;"/>
    <polygon points="662.37 46.57 662.37 39.75 669.19 39.75 666.29 36.86 659.47 36.86 659.47 43.67 662.37 46.57" style="fill: #f0a758;"/>
    <polygon points="664.3 48.5 671.12 48.5 671.11 41.68 674.01 44.57 674.01 51.39 667.19 51.39 664.3 48.5" style="fill: #f0a758;"/>
  </g>
  <g>
    <line x1="659.58" y1="243.11" x2="669.51" y2="233.18" style="fill: none; stroke: #f0a758; stroke-linecap: round; stroke-miterlimit: 10; stroke-width: 2.84px;"/>
    <polygon points="666.99 242.52 660.17 242.52 660.17 235.7 657.28 238.59 657.28 245.41 664.1 245.41 666.99 242.52" style="fill: #f0a758;"/>
    <polygon points="668.92 240.59 668.92 233.77 662.1 233.77 665 230.88 671.81 230.88 671.81 237.7 668.92 240.59" style="fill: #f0a758;"/>
  </g>
  <g>
    <line x1="481.56" y1="51.24" x2="491.5" y2="41.3" style="fill: none; stroke: #f0a758; stroke-linecap: round; stroke-miterlimit: 10; stroke-width: 2.84px;"/>
    <polygon points="488.97 50.64 482.15 50.64 482.15 43.82 479.26 46.72 479.26 53.54 486.08 53.54 488.97 50.64" style="fill: #f0a758;"/>
    <polygon points="490.9 48.71 490.9 41.89 484.08 41.9 486.98 39 493.79 39 493.79 45.82 490.9 48.71" style="fill: #f0a758;"/>
  </g>
  <g>
    <line x1="456.3" y1="131.9" x2="456.3" y2="145.96" style="fill: none; stroke: #f0a758; stroke-linecap: round; stroke-miterlimit: 10; stroke-width: 2.84px;"/>
    <polygon points="451.48 137.57 456.3 132.74 461.12 137.57 461.12 133.47 456.3 128.65 451.48 133.47 451.48 137.57" style="fill: #f0a758;"/>
    <polygon points="451.48 140.29 456.3 145.12 461.12 140.29 461.12 144.39 456.3 149.21 451.48 144.39 451.48 140.29" style="fill: #f0a758;"/>
  </g>
  <g>
    <line x1="693.59" y1="133.37" x2="693.59" y2="147.43" style="fill: none; stroke: #f0a758; stroke-linecap: round; stroke-miterlimit: 10; stroke-width: 2.84px;"/>
    <polygon points="688.77 139.04 693.59 134.21 698.41 139.04 698.41 134.94 693.59 130.12 688.77 134.94 688.77 139.04" style="fill: #f0a758;"/>
    <polygon points="688.77 141.76 693.59 146.59 698.41 141.76 698.41 145.86 693.59 150.68 688.77 145.86 688.77 141.76" style="fill: #f0a758;"/>
  </g>
</svg>