<?xml version="1.0" encoding="UTF-8"?>
<svg id="Capa_1" data-name="Capa 1" xmlns="http://www.w3.org/2000/svg" xmlns:xlink="http://www.w3.org/1999/xlink" viewBox="0 0 768 455.54">
  <defs>
    <filter id="drop-shadow-1" x="219.31" y="173.38" width="329.52" height="249.36" filterUnits="userSpaceOnUse">
      <feOffset dx="0" dy="5.61"/>
      <feGaussianBlur result="blur" stdDeviation="3.89"/>
      <feFlood flood-color="#414a59" flood-opacity=".3"/>
      <feComposite in2="blur" operator="in"/>
      <feComposite in="SourceGraphic"/>
    </filter>
    <filter id="drop-shadow-3" x="248.64" y="202.94" width="270.72" height="187.68" filterUnits="userSpaceOnUse">
      <feOffset dx="0" dy="7.2"/>
      <feGaussianBlur result="blur-2" stdDeviation="5"/>
      <feFlood flood-color="#414a59" flood-opacity=".3"/>
      <feComposite in2="blur-2" operator="in"/>
      <feComposite in="SourceGraphic"/>
    </filter>
  </defs>
  <rect y=".35" width="768" height="454.5" rx="16.63" ry="16.63" style="fill: #99c5c6;"/>
  <g style="filter: url(#drop-shadow-1);">
    <ellipse cx="384" cy="292.41" rx="152.85" ry="112.85" style="fill: #f4c24e;"/>
  </g>
  <g style="filter: url(#drop-shadow-3);">
    <ellipse cx="384" cy="289.6" rx="120.13" ry="78.78" style="fill: #f4e2a6;"/>
  </g>
  <text transform="translate(345.72 277.51)" style="font-family: Montserrat-SemiBold, Montserrat; font-size: 24px; font-weight: 600;"><tspan x="0" y="0">Ma</tspan><tspan x="37.49" y="0" style="letter-spacing: 0em;">r</tspan><tspan x="47.33" y="0" style="letter-spacing: 0em;">c</tspan><tspan x="61.08" y="0">o </tspan><tspan x="-27.13" y="28.8">No</tspan><tspan x="7.79" y="28.8" style="letter-spacing: 0em;">r</tspan><tspan x="17.75" y="28.8">mati</tspan><tspan x="74.7" y="28.8" style="letter-spacing: -.02em;">v</tspan><tspan x="88.21" y="28.8" style="letter-spacing: 0em;">o</tspan></text>
  <g>
    <rect x="392.5" y="61.17" width="170" height="90" rx="7.74" ry="7.74" style="fill: #d3f4e9;"/>
    <text transform="translate(421.36 76.41)" style="font-family: Montserrat-SemiBold, Montserrat; font-size: 14px; font-weight: 600;"><tspan x="0" y="0">Li</tspan><tspan x="12.43" y="0" style="letter-spacing: 0em;">n</tspan><tspan x="22.04" y="0" style="letter-spacing: -.01em;">e</tspan><tspan x="30.53" y="0">amien</tspan><tspan x="76.12" y="0" style="letter-spacing: -.02em;">t</tspan><tspan x="81.8" y="0">o de </tspan><tspan x="-3.1" y="16.8">Planific</tspan><tspan x="50.65" y="16.8" style="letter-spacing: 0em;">a</tspan><tspan x="59.16" y="16.8" style="letter-spacing: 0em;">c</tspan><tspan x="67.22" y="16.8">ión del </tspan><tspan x="-1.27" y="33.6">Desa</tspan><tspan x="34.71" y="33.6" style="letter-spacing: 0em;">r</tspan><tspan x="40.52" y="33.6" style="letter-spacing: -.01em;">r</tspan><tspan x="46.26" y="33.6">ollo </tspan><tspan x="76.27" y="33.6" style="letter-spacing: 0em;">L</tspan><tspan x="84.59" y="33.6">ocal </tspan><tspan x="-17.06" y="50.4">(</tspan><tspan x="-12.2" y="50.4" style="letter-spacing: 0em;">L</tspan><tspan x="-3.88" y="50.4" style="letter-spacing: -.02em;">-</tspan><tspan x="1.23" y="50.4">1</tspan><tspan x="6.56" y="50.4" style="letter-spacing: -.01em;">-</tspan><tspan x="11.74" y="50.4">200</tspan><tspan x="38.73" y="50.4" style="letter-spacing: 0em;">9-</tspan><tspan x="53.04" y="50.4" style="letter-spacing: -.01em;">C</tspan><tspan x="63.01" y="50.4" style="letter-spacing: 0em;">O</tspan><tspan x="74.86" y="50.4">-D</tspan><tspan x="91.82" y="50.4" style="letter-spacing: 0em;">F</tspan><tspan x="100.62" y="50.4">OE), </tspan><tspan x="41.01" y="67.2" style="letter-spacing: -.01em;">C</tspan><tspan x="50.97" y="67.2">GR</tspan></text>
  </g>
  <g>
    <rect x="28.13" y="159.74" width="170" height="68" rx="7.74" ry="7.74" style="fill: #d3f4e9;"/>
    <text transform="translate(47.54 180.34)" style="font-family: Montserrat-SemiBold, Montserrat; font-size: 14px; font-weight: 600;"><tspan x="0" y="0" style="letter-spacing: -.02em;">C</tspan><tspan x="9.9" y="0">ódigo Muni</tspan><tspan x="91.74" y="0" style="letter-spacing: 0em;">c</tspan><tspan x="99.8" y="0">i</tspan><tspan x="103.85" y="0" style="letter-spacing: 0em;">p</tspan><tspan x="113.36" y="0">al, </tspan><tspan x="-5.87" y="16.8">a</tspan><tspan x="2.63" y="16.8" style="letter-spacing: .01em;">r</tspan><tspan x="8.72" y="16.8">tículos </tspan><tspan x="60.52" y="16.8" style="letter-spacing: .02em;">4</tspan><tspan x="70.31" y="16.8">, 5, 13, 5</tspan><tspan x="121.98" y="16.8" style="letter-spacing: .02em;">4</tspan><tspan x="131.77" y="16.8">, </tspan><tspan x="12.69" y="33.6" style="letter-spacing: -.01em;">5</tspan><tspan x="20.69" y="33.6" style="letter-spacing: -.05em;">7</tspan><tspan x="28.5" y="33.6">, 5</tspan><tspan x="43.95" y="33.6" style="letter-spacing: -.01em;">9</tspan><tspan x="52.56" y="33.6">, 60 y 1</tspan><tspan x="99.2" y="33.6" style="letter-spacing: -.01em;">0</tspan><tspan x="108.48" y="33.6">3</tspan></text>
  </g>
  <g>
    <rect x="26.32" y="261.81" width="170" height="68" rx="7.74" ry="7.74" style="fill: #d3f4e9;"/>
    <text transform="translate(38.54 291.06)" style="font-family: Montserrat-SemiBold, Montserrat; font-size: 14px; font-weight: 600;"><tspan x="0" y="0" style="letter-spacing: 0em;">L</tspan><tspan x="8.32" y="0" style="letter-spacing: -.01em;">e</tspan><tspan x="16.88" y="0">y 7</tspan><tspan x="37.35" y="0" style="letter-spacing: -.02em;">7</tspan><tspan x="45.61" y="0" style="letter-spacing: 0em;">5</tspan><tspan x="53.72" y="0">5, </tspan><tspan x="69.17" y="0" style="letter-spacing: -.02em;">C</tspan><tspan x="79.07" y="0">ont</tspan><tspan x="103.63" y="0" style="letter-spacing: 0em;">r</tspan><tspan x="109.37" y="0">ol de </tspan><tspan x=".4" y="16.8" style="letter-spacing: -.01em;">P</tspan><tspan x="10.35" y="16.8">a</tspan><tspan x="18.85" y="16.8" style="letter-spacing: .01em;">r</tspan><tspan x="24.94" y="16.8">tidas </tspan><tspan x="64.11" y="16.8" style="letter-spacing: 0em;">E</tspan><tspan x="73.42" y="16.8">specíficas</tspan></text>
  </g>
  <g>
    <rect x="24.5" y="363.87" width="170" height="68" rx="7.74" ry="7.74" style="fill: #d3f4e9;"/>
    <text transform="translate(34.16 392.83)" style="font-family: Montserrat-SemiBold, Montserrat; font-size: 14px; font-weight: 600;"><tspan x="0" y="0" style="letter-spacing: -.02em;">C</tspan><tspan x="9.9" y="0">onstitu</tspan><tspan x="61.18" y="0" style="letter-spacing: 0em;">c</tspan><tspan x="69.24" y="0">ión </tspan><tspan x="95.77" y="0" style="letter-spacing: -.01em;">P</tspan><tspan x="105.77" y="0">olítica, </tspan><tspan x="12.42" y="16.8">a</tspan><tspan x="20.92" y="16.8" style="letter-spacing: .01em;">r</tspan><tspan x="27.01" y="16.8">tículos 169 y 1</tspan><tspan x="122.85" y="16.8" style="letter-spacing: -.02em;">7</tspan><tspan x="131.08" y="16.8">0</tspan></text>
  </g>
  <g>
    <rect x="210.31" y="21.17" width="170" height="130" rx="7.74" ry="7.74" style="fill: #d3f4e9;"/>
    <text transform="translate(246.65 39.07)" style="font-family: Montserrat-SemiBold, Montserrat; font-size: 14px; font-weight: 600;"><tspan x="0" y="0">Regla</tspan><tspan x="41.2" y="0" style="letter-spacing: 0em;">m</tspan><tspan x="55.96" y="0">en</tspan><tspan x="74.25" y="0" style="letter-spacing: -.02em;">t</tspan><tspan x="79.94" y="0">os </tspan><tspan x="-13.73" y="16.8">muni</tspan><tspan x="24.18" y="16.8" style="letter-spacing: 0em;">c</tspan><tspan x="32.25" y="16.8">i</tspan><tspan x="36.29" y="16.8" style="letter-spacing: 0em;">p</tspan><tspan x="45.8" y="16.8">ales </tspan><tspan x="78.13" y="16.8" style="letter-spacing: 0em;">p</tspan><tspan x="87.63" y="16.8">a</tspan><tspan x="96.13" y="16.8" style="letter-spacing: -.04em;">r</tspan><tspan x="101.41" y="16.8">a </tspan><tspan x="-31.42" y="33.6">p</tspan><tspan x="-21.81" y="33.6" style="letter-spacing: -.01em;">r</tspan><tspan x="-16.07" y="33.6">o</tspan><tspan x="-7.04" y="33.6" style="letter-spacing: 0em;">m</tspan><tspan x="7.71" y="33.6" style="letter-spacing: -.01em;">ov</tspan><tspan x="24.42" y="33.6">er </tspan><tspan x="42.87" y="33.6" style="letter-spacing: 0em;">m</tspan><tspan x="57.62" y="33.6">ecanis</tspan><tspan x="103.81" y="33.6" style="letter-spacing: 0em;">m</tspan><tspan x="118.56" y="33.6">o </tspan><tspan x="-10.47" y="50.4">de </tspan><tspan x="11.72" y="50.4" style="letter-spacing: 0em;">p</tspan><tspan x="21.22" y="50.4">a</tspan><tspan x="29.72" y="50.4" style="letter-spacing: .01em;">r</tspan><tspan x="35.81" y="50.4">ti</tspan><tspan x="45.79" y="50.4" style="letter-spacing: 0em;">c</tspan><tspan x="53.86" y="50.4">i</tspan><tspan x="57.9" y="50.4" style="letter-spacing: 0em;">p</tspan><tspan x="67.41" y="50.4" style="letter-spacing: 0em;">a</tspan><tspan x="75.92" y="50.4" style="letter-spacing: 0em;">c</tspan><tspan x="83.99" y="50.4">ión </tspan><tspan x="-20.56" y="67.2" style="letter-spacing: 0em;">c</tspan><tspan x="-12.49" y="67.2">iud</tspan><tspan x="10.7" y="67.2" style="letter-spacing: 0em;">a</tspan><tspan x="19.22" y="67.2">dana </tspan><tspan x="59.28" y="67.2" style="letter-spacing: 0em;">c</tspan><tspan x="67.31" y="67.2">o</tspan><tspan x="76.33" y="67.2" style="letter-spacing: 0em;">m</tspan><tspan x="91.09" y="67.2">o el </tspan><tspan x="2.81" y="84">p</tspan><tspan x="12.41" y="84" style="letter-spacing: -.01em;">r</tspan><tspan x="18.15" y="84">esupues</tspan><tspan x="78.66" y="84" style="letter-spacing: -.02em;">t</tspan><tspan x="84.34" y="84">o </tspan><tspan x="2.55" y="100.8" style="letter-spacing: 0em;">p</tspan><tspan x="12.05" y="100.8">a</tspan><tspan x="20.55" y="100.8" style="letter-spacing: .01em;">r</tspan><tspan x="26.64" y="100.8">ti</tspan><tspan x="36.62" y="100.8" style="letter-spacing: 0em;">c</tspan><tspan x="44.69" y="100.8">i</tspan><tspan x="48.73" y="100.8" style="letter-spacing: 0em;">p</tspan><tspan x="58.24" y="100.8">ati</tspan><tspan x="76.72" y="100.8" style="letter-spacing: -.01em;">v</tspan><tspan x="84.6" y="100.8">o</tspan></text>
  </g>
  <g>
    <rect x="574.68" y="159.74" width="170" height="130" rx="7.74" ry="7.74" style="fill: #d3f4e9;"/>
    <text transform="translate(590.1 185.81)" style="font-family: Montserrat-SemiBold, Montserrat; font-size: 14px; font-weight: 600;"><tspan x="0" y="0" style="letter-spacing: 0em;">L</tspan><tspan x="8.32" y="0" style="letter-spacing: -.01em;">e</tspan><tspan x="16.88" y="0">y 88</tspan><tspan x="47.1" y="0" style="letter-spacing: 0em;">0</tspan><tspan x="56.5" y="0">1</tspan><tspan x="61.84" y="0" style="letter-spacing: -.01em;">-</tspan><tspan x="67.02" y="0">200</tspan><tspan x="94.01" y="0" style="letter-spacing: -.01em;">0</tspan><tspan x="103.26" y="0" xml:space="preserve">,  </tspan><tspan x="114.41" y="0" style="letter-spacing: 0em;">L</tspan><tspan x="122.72" y="0" style="letter-spacing: -.01em;">e</tspan><tspan x="131.29" y="0">y </tspan><tspan x="30.77" y="16.8">Ge</tspan><tspan x="50.29" y="16.8" style="letter-spacing: 0em;">n</tspan><tspan x="59.89" y="16.8">e</tspan><tspan x="68.6" y="16.8" style="letter-spacing: -.04em;">r</tspan><tspan x="73.88" y="16.8">al de </tspan><tspan x="4.35" y="33.6" style="letter-spacing: -.01em;">T</tspan><tspan x="12.59" y="33.6" style="letter-spacing: -.04em;">r</tspan><tspan x="17.87" y="33.6">ans</tspan><tspan x="43.17" y="33.6" style="letter-spacing: 0em;">f</tspan><tspan x="48.22" y="33.6">e</tspan><tspan x="56.93" y="33.6" style="letter-spacing: -.01em;">r</tspan><tspan x="62.67" y="33.6">e</tspan><tspan x="71.38" y="33.6" style="letter-spacing: 0em;">n</tspan><tspan x="80.98" y="33.6" style="letter-spacing: 0em;">c</tspan><tspan x="89.05" y="33.6">ias del </tspan><tspan x="-5.24" y="50.4" style="letter-spacing: -.01em;">P</tspan><tspan x="4.76" y="50.4">oder Ejecuti</tspan><tspan x="91.73" y="50.4" style="letter-spacing: -.01em;">v</tspan><tspan x="99.61" y="50.4">o a las </tspan><tspan x="8.78" y="67.2">Muni</tspan><tspan x="45.32" y="67.2" style="letter-spacing: 0em;">c</tspan><tspan x="53.38" y="67.2">i</tspan><tspan x="57.43" y="67.2" style="letter-spacing: 0em;">p</tspan><tspan x="66.93" y="67.2">alid</tspan><tspan x="93.14" y="67.2" style="letter-spacing: 0em;">a</tspan><tspan x="101.65" y="67.2">des. </tspan><tspan x="-4.53" y="84">C</tspan><tspan x="5.65" y="84" style="letter-spacing: -.01em;">r</tspan><tspan x="11.39" y="84" style="letter-spacing: -.01em;">e</tspan><tspan x="19.89" y="84" style="letter-spacing: 0em;">a</tspan><tspan x="28.4" y="84" style="letter-spacing: 0em;">c</tspan><tspan x="36.46" y="84">ión de los </tspan><tspan x="109.33" y="84" style="letter-spacing: -.01em;">CC</tspan><tspan x="129.27" y="84">CI</tspan></text>
  </g>
  <g>
    <rect x="576.65" y="301.87" width="170" height="130" rx="7.74" ry="7.74" style="fill: #d3f4e9;"/>
    <text transform="translate(588.63 337.82)" style="font-family: Montserrat-SemiBold, Montserrat; font-size: 14px; font-weight: 600;"><tspan x="0" y="0" style="letter-spacing: 0em;">L</tspan><tspan x="8.32" y="0" style="letter-spacing: -.01em;">e</tspan><tspan x="16.88" y="0">y 8114 y </tspan><tspan x="73.96" y="0" style="letter-spacing: 0em;">9</tspan><tspan x="82.6" y="0" style="letter-spacing: 0em;">3</tspan><tspan x="90.68" y="0">29 </tspan><tspan x="111.47" y="0" style="letter-spacing: 0em;">p</tspan><tspan x="120.97" y="0">a</tspan><tspan x="129.47" y="0" style="letter-spacing: -.04em;">r</tspan><tspan x="134.75" y="0">a </tspan><tspan x="4.86" y="16.8">la t</tspan><tspan x="27.2" y="16.8" style="letter-spacing: -.04em;">r</tspan><tspan x="32.48" y="16.8">ans</tspan><tspan x="57.78" y="16.8" style="letter-spacing: 0em;">f</tspan><tspan x="62.83" y="16.8">e</tspan><tspan x="71.54" y="16.8" style="letter-spacing: -.01em;">r</tspan><tspan x="77.28" y="16.8">e</tspan><tspan x="85.99" y="16.8" style="letter-spacing: 0em;">n</tspan><tspan x="95.59" y="16.8" style="letter-spacing: 0em;">c</tspan><tspan x="103.66" y="16.8">ia de </tspan><tspan x="-5.36" y="33.6" style="letter-spacing: 0em;">c</tspan><tspan x="2.66" y="33.6">ompe</tspan><tspan x="44.74" y="33.6" style="letter-spacing: -.02em;">t</tspan><tspan x="50.43" y="33.6">e</tspan><tspan x="59.14" y="33.6" style="letter-spacing: 0em;">n</tspan><tspan x="68.74" y="33.6" style="letter-spacing: 0em;">c</tspan><tspan x="76.8" y="33.6">ias </tspan><tspan x="100.42" y="33.6" style="letter-spacing: 0em;">p</tspan><tspan x="109.93" y="33.6">a</tspan><tspan x="118.43" y="33.6" style="letter-spacing: -.04em;">r</tspan><tspan x="123.7" y="33.6">a la </tspan><tspan x="6.75" y="50.4">a</tspan><tspan x="15.25" y="50.4" style="letter-spacing: -.02em;">t</tspan><tspan x="20.93" y="50.4">e</tspan><tspan x="29.64" y="50.4" style="letter-spacing: 0em;">n</tspan><tspan x="39.24" y="50.4" style="letter-spacing: 0em;">c</tspan><tspan x="47.31" y="50.4">ión de la </tspan><tspan x="112.43" y="50.4" style="letter-spacing: -.01em;">r</tspan><tspan x="118.17" y="50.4">ed </tspan><tspan x="25.82" y="67.2">vial can</tspan><tspan x="80.58" y="67.2" style="letter-spacing: -.02em;">t</tspan><tspan x="86.27" y="67.2">onal</tspan></text>
  </g>
  <g>
    <path d="M444.32,198.14c4.31-2.54,8.48-5.42,12.14-8.92,3.63-3.51,6.89-7.45,9.61-11.78,2.73-4.32,4.9-9.02,6.45-13.93.33-1.24.72-2.47,1.01-3.73.25-1.26.58-2.52.72-3.8.38-2.55.59-5.17.07-7.72.71,2.51.7,5.19.5,7.78-.05,1.31-.29,2.6-.45,3.91-.2,1.3-.5,2.57-.75,3.87-1.21,5.11-3.08,10.09-5.57,14.77-2.49,4.68-5.57,9.05-9.14,13.04-3.59,3.98-7.79,7.37-12.23,10.43-1.04.72-2.47.46-3.19-.58-.72-1.04-.46-2.47.58-3.19.04-.03.09-.06.13-.09l.1-.06Z" style="fill: #4e6539;"/>
    <polygon points="458.31 202.68 446.79 199.36 450.11 187.84 443.81 191.32 440.49 202.84 452.01 206.16 458.31 202.68" style="fill: #4e6539;"/>
  </g>
  <g>
    <path d="M313.47,204.26c-4.44-3.06-8.63-6.45-12.23-10.43-3.57-3.99-6.65-8.36-9.14-13.04-2.49-4.67-4.36-9.65-5.57-14.77-.25-1.29-.55-2.57-.75-3.87-.16-1.3-.4-2.59-.45-3.91-.2-2.6-.21-5.27.5-7.78-.52,2.55-.32,5.18.07,7.72.14,1.28.47,2.54.72,3.8.29,1.26.68,2.49,1.01,3.73,1.55,4.91,3.72,9.61,6.45,13.93,2.72,4.32,5.98,8.27,9.61,11.78,3.66,3.5,7.83,6.37,12.14,8.92l.09.05c1.09.64,1.45,2.05.81,3.14-.64,1.09-2.05,1.45-3.14.81-.05-.03-.1-.06-.14-.09Z" style="fill: #4e6539;"/>
    <polygon points="310.06 190.05 313.38 201.57 301.85 204.88 308.15 208.37 319.67 205.05 316.36 193.53 310.06 190.05" style="fill: #4e6539;"/>
  </g>
  <g>
    <path d="M238.83,251.66c-5.36-.54-10.68-1.49-15.74-3.23-5.05-1.77-9.86-4.11-14.3-7.01-4.44-2.89-8.48-6.35-12.01-10.24-.84-1.01-1.72-1.98-2.52-3.02-.77-1.06-1.6-2.08-2.28-3.2-1.43-2.18-2.73-4.51-3.32-7.06.77,2.49,2.22,4.69,3.79,6.73.74,1.06,1.64,2,2.47,2.98.86.96,1.8,1.85,2.69,2.78,3.73,3.55,7.9,6.62,12.37,9.08,4.47,2.47,9.22,4.36,14.1,5.68,4.9,1.3,9.93,1.8,14.94,1.95h.11c1.27.04,2.26,1.1,2.23,2.36-.04,1.27-1.09,2.26-2.36,2.23-.05,0-.11,0-.16-.01Z" style="fill: #4e6539;"/>
    <polygon points="228.98 240.86 237.45 249.35 228.95 257.81 236.15 257.82 244.64 249.36 236.17 240.87 228.98 240.86" style="fill: #4e6539;"/>
  </g>
  <g>
    <path d="M239.63,326.81c-5.03,1.94-10.19,3.5-15.5,4.23-5.3.7-10.66.79-15.92.22-5.27-.57-10.43-1.83-15.34-3.71-1.21-.52-2.43-.99-3.62-1.56-1.17-.6-2.37-1.13-3.48-1.83-2.26-1.3-4.47-2.79-6.15-4.8,1.82,1.87,4.1,3.17,6.42,4.29,1.14.61,2.36,1.04,3.55,1.54,1.2.47,2.44.84,3.65,1.26,4.93,1.48,10.04,2.33,15.14,2.51,5.11.18,10.2-.29,15.14-1.31,4.95-1.06,9.67-2.89,14.2-5.02l.1-.05c1.15-.54,2.51-.05,3.05,1.1.54,1.15.05,2.51-1.1,3.05-.05.02-.1.05-.15.06Z" style="fill: #4e6539;"/>
    <polygon points="225.96 321.63 237.35 325.37 233.61 336.76 240.03 333.52 243.77 322.13 232.38 318.39 225.96 321.63" style="fill: #4e6539;"/>
  </g>
  <g>
    <path d="M294.29,385.89c-3.98,3.64-8.22,6.97-12.9,9.59-4.68,2.58-9.64,4.62-14.75,5.99-5.11,1.39-10.38,2.09-15.64,2.13-1.32-.05-2.63-.04-3.94-.13-1.31-.13-2.62-.19-3.91-.44-2.58-.39-5.18-.97-7.47-2.23,2.37,1.08,4.98,1.46,7.54,1.66,1.28.15,2.58.11,3.87.15,1.29,0,2.58-.11,3.86-.15,5.13-.42,10.2-1.48,15.02-3.18,4.82-1.69,9.39-3.98,13.63-6.73,4.23-2.79,7.96-6.21,11.4-9.84l.07-.08c.87-.92,2.32-.96,3.24-.09.92.87.96,2.32.09,3.24-.04.04-.08.08-.12.12Z" style="fill: #4e6539;"/>
    <polygon points="279.67 386.04 291.64 385.38 292.3 397.35 297.1 391.99 296.44 380.02 284.47 380.68 279.67 386.04" style="fill: #4e6539;"/>
  </g>
  <g>
    <path d="M527.27,247.08c5.01-.15,10.04-.65,14.94-1.95,4.88-1.32,9.63-3.2,14.1-5.68,4.48-2.46,8.64-5.53,12.37-9.08.89-.93,1.83-1.82,2.69-2.78.83-.98,1.72-1.93,2.47-2.98,1.56-2.05,3.01-4.24,3.79-6.73-.59,2.55-1.89,4.88-3.32,7.06-.68,1.13-1.51,2.14-2.28,3.2-.8,1.04-1.68,2.01-2.52,3.02-3.53,3.89-7.57,7.35-12.01,10.24-4.44,2.9-9.25,5.24-14.3,7.01-5.07,1.75-10.38,2.69-15.74,3.23-1.26.13-2.38-.79-2.51-2.05-.13-1.26.79-2.38,2.05-2.51.05,0,.11,0,.16-.01h.11Z" style="fill: #4e6539;"/>
    <polygon points="537.34 257.81 528.85 249.35 537.31 240.86 530.12 240.87 521.65 249.36 530.14 257.82 537.34 257.81" style="fill: #4e6539;"/>
  </g>
  <g>
    <path d="M531.69,322.65c4.53,2.13,9.25,3.96,14.2,5.02,4.95,1.03,10.04,1.5,15.14,1.31,5.11-.17,10.21-1.03,15.14-2.51,1.21-.42,2.45-.79,3.65-1.26,1.18-.5,2.41-.94,3.55-1.54,2.32-1.12,4.6-2.42,6.42-4.29-1.68,2-3.89,3.5-6.15,4.8-1.11.7-2.31,1.23-3.48,1.83-1.18.56-2.41,1.03-3.62,1.56-4.91,1.88-10.07,3.14-15.34,3.71-5.27.58-10.62.49-15.92-.22-5.31-.73-10.47-2.29-15.5-4.23-1.18-.46-1.77-1.78-1.31-2.97.46-1.18,1.78-1.77,2.97-1.31.05.02.1.04.15.06l.1.05Z" style="fill: #4e6539;"/>
    <polygon points="535.82 336.76 532.07 325.37 543.46 321.63 537.04 318.39 525.65 322.13 529.39 333.52 535.82 336.76" style="fill: #4e6539;"/>
  </g>
</svg>