<?xml version="1.0" encoding="UTF-8"?>
<svg id="Capa_1" data-name="Capa 1" xmlns="http://www.w3.org/2000/svg" viewBox="0 0 768 634.65">
  <rect y="-.6" width="768" height="635.36" rx="16.2" ry="16.2" style="fill: #f5ffde;"/>
  <ellipse cx="384" cy="435.43" rx="99.81" ry="59.06" style="fill: #f4e2a6;"/>
  <text transform="translate(351.86 423.76)" style="font-family: Montserrat-SemiBold, Montserrat; font-size: 22.26px; font-weight: 600;"><tspan x="0" y="0">Á</tspan><tspan x="16.67" y="0" style="letter-spacing: -.01em;">r</tspan><tspan x="25.8" y="0" style="letter-spacing: -.01em;">e</tspan><tspan x="39.31" y="0">as</tspan><tspan x="-38" y="26.71" style="letter-spacing: 0em;">E</tspan><tspan x="-23.19" y="26.71">st</tspan><tspan x="-2.29" y="26.71" style="letter-spacing: -.04em;">r</tspan><tspan x="6.1" y="26.71">a</tspan><tspan x="19.61" y="26.71" style="letter-spacing: -.02em;">t</tspan><tspan x="28.65" y="26.71">égicas</tspan></text>
  <rect x="278.49" y="34.38" width="211.02" height="54.8" rx="6.8" ry="6.8" style="fill: #8dc4b3;"/>
  <text transform="translate(293.83 71.15)" style="font-family: Montserrat-SemiBold, Montserrat; font-size: 22.26px; font-weight: 600;"><tspan x="0" y="0">Ma</tspan><tspan x="34.77" y="0" style="letter-spacing: -.01em;">r</tspan><tspan x="43.89" y="0" style="letter-spacing: 0em;">c</tspan><tspan x="56.65" y="0">o filosófi</tspan><tspan x="153.23" y="0" style="letter-spacing: 0em;">c</tspan><tspan x="165.98" y="0">o</tspan></text>
  <rect x="278.49" y="102.06" width="211.02" height="54.8" rx="6.8" ry="6.8" style="fill: #8dc4b3;"/>
  <text transform="translate(346.41 140.08)" style="font-family: Montserrat-SemiBold, Montserrat; font-size: 22.26px; font-weight: 600;"><tspan x="0" y="0">Misión</tspan></text>
  <rect x="278.49" y="169.75" width="211.02" height="54.8" rx="6.8" ry="6.8" style="fill: #8dc4b3;"/>
  <text transform="translate(349.03 205.54)" style="font-family: Montserrat-SemiBold, Montserrat; font-size: 22.26px; font-weight: 600;"><tspan x="0" y="0" style="letter-spacing: -.01em;">V</tspan><tspan x="16" y="0">isión</tspan></text>
  <rect x="278.49" y="237.44" width="211.02" height="54.8" rx="6.8" ry="6.8" style="fill: #8dc4b3;"/>
  <text transform="translate(342.13 272.36)" style="font-family: Montserrat-SemiBold, Montserrat; font-size: 22.26px; font-weight: 600;"><tspan x="0" y="0" style="letter-spacing: -.05em;">V</tspan><tspan x="15" y="0">alo</tspan><tspan x="49.3" y="0" style="letter-spacing: -.01em;">r</tspan><tspan x="58.43" y="0">es</tspan></text>
  <rect x="278.49" y="305.12" width="211.02" height="54.8" rx="6.8" ry="6.8" style="fill: #8dc4b3;"/>
  <text transform="translate(326.06 325.93)" style="font-family: Montserrat-SemiBold, Montserrat; font-size: 22.26px; font-weight: 600;"><tspan x="0" y="0" style="letter-spacing: 0em;">E</tspan><tspan x="14.8" y="0">st</tspan><tspan x="35.7" y="0" style="letter-spacing: -.04em;">r</tspan><tspan x="44.1" y="0">a</tspan><tspan x="57.61" y="0" style="letter-spacing: -.02em;">t</tspan><tspan x="66.64" y="0">egia </tspan><tspan x="-13.27" y="26.71">institu</tspan><tspan x="60.34" y="26.71" style="letter-spacing: 0em;">c</tspan><tspan x="73.17" y="26.71">ional</tspan></text>
  <rect x="546.22" y="359" width="186.98" height="106.84" rx="8.94" ry="8.94" style="fill: #498974;"/>
  <rect x="34.01" y="359" width="186.98" height="106.84" rx="8.94" ry="8.94" style="fill: #498974;"/>
  <text transform="translate(593.23 406.68)" style="fill: #fff; font-family: Montserrat-SemiBold, Montserrat; font-size: 22.26px; font-weight: 600;"><tspan x="0" y="0" style="letter-spacing: -.01em;">P</tspan><tspan x="15.89" y="0">olíticas</tspan><tspan x="-35.41" y="26.71">institu</tspan><tspan x="38.2" y="26.71" style="letter-spacing: 0em;">c</tspan><tspan x="51.02" y="26.71">ionales</tspan></text>
  <text transform="translate(74.62 389.79)" style="fill: #fff; font-family: Montserrat-SemiBold, Montserrat; font-size: 22.26px; font-weight: 600;"><tspan x="0" y="0">Lí</tspan><tspan x="19.77" y="0" style="letter-spacing: 0em;">n</tspan><tspan x="35.04" y="0" style="letter-spacing: -.02em;">e</tspan><tspan x="48.55" y="0">as de </tspan><tspan x="16.83" y="26.71" style="letter-spacing: 0em;">a</tspan><tspan x="30.36" y="26.71" style="letter-spacing: 0em;">c</tspan><tspan x="43.12" y="26.71" style="letter-spacing: 0em;">c</tspan><tspan x="55.94" y="26.71">ión </tspan><tspan x="-15.26" y="53.42">est</tspan><tspan x="19.49" y="53.42" style="letter-spacing: -.04em;">r</tspan><tspan x="27.88" y="53.42">a</tspan><tspan x="41.39" y="53.42" style="letter-spacing: -.02em;">t</tspan><tspan x="50.43" y="53.42">égicas </tspan></text>
  <rect x="431.57" y="502.21" width="186.98" height="106.84" rx="8.94" ry="8.94" style="fill: #498974;"/>
  <rect x="159.22" y="502.21" width="186.98" height="106.84" rx="8.94" ry="8.94" style="fill: #498974;"/>
  <text transform="translate(469.65 549.89)" style="fill: #fff; font-family: Montserrat-SemiBold, Montserrat; font-size: 22.26px; font-weight: 600;"><tspan x="0" y="0">Objeti</tspan><tspan x="70.29" y="0" style="letter-spacing: -.02em;">v</tspan><tspan x="82.83" y="0">os</tspan><tspan x="-15.67" y="26.71">est</tspan><tspan x="19.08" y="26.71" style="letter-spacing: -.04em;">r</tspan><tspan x="27.47" y="26.71">a</tspan><tspan x="40.98" y="26.71" style="letter-spacing: -.02em;">t</tspan><tspan x="50.02" y="26.71">égi</tspan><tspan x="85.74" y="26.71" style="letter-spacing: 0em;">c</tspan><tspan x="98.5" y="26.71">os</tspan></text>
  <text transform="translate(195.24 549.89)" style="fill: #fff; font-family: Montserrat-SemiBold, Montserrat; font-size: 22.26px; font-weight: 600;"><tspan x="0" y="0">Objeti</tspan><tspan x="70.29" y="0" style="letter-spacing: -.02em;">v</tspan><tspan x="82.83" y="0">os</tspan><tspan x="-9.23" y="26.71">específi</tspan><tspan x="79.3" y="26.71" style="letter-spacing: 0em;">c</tspan><tspan x="92.05" y="26.71">os</tspan></text>
  <g>
    <path d="M238.6,114.44c-4.39-4.32-8.24-9.22-11.02-14.77-2.79-5.51-4.28-11.85-3.58-18.04.67-6.2,3.52-11.88,7.27-16.56,3.79-4.69,8.41-8.57,13.28-11.95-4.65,3.69-8.97,7.84-12.36,12.64-3.36,4.79-5.65,10.35-5.89,16.05-.27,5.7,1.44,11.32,4.33,16.21,2.87,4.92,6.76,9.26,11.09,13h0c.97.84,1.08,2.3.24,3.27-.84.97-2.3,1.08-3.27.24-.04-.03-.08-.07-.11-.1Z" style="fill: #99c5c6;"/>
    <polygon points="238.13 99.77 239.09 111.72 227.13 112.67 232.61 117.34 244.56 116.39 243.61 104.44 238.13 99.77" style="fill: #99c5c6;"/>
  </g>
  <g>
    <path d="M236.11,252.57c-4.39-4.32-8.24-9.22-11.02-14.77-2.79-5.51-4.28-11.85-3.58-18.04.67-6.2,3.52-11.88,7.27-16.56,3.79-4.69,8.41-8.57,13.28-11.95-4.65,3.69-8.97,7.84-12.36,12.64-3.36,4.79-5.65,10.35-5.89,16.05-.27,5.7,1.44,11.32,4.33,16.21,2.87,4.92,6.76,9.26,11.09,13h0c.97.84,1.08,2.3.24,3.27-.84.97-2.3,1.08-3.27.24-.04-.03-.08-.07-.11-.1Z" style="fill: #99c5c6;"/>
    <polygon points="235.65 237.89 236.6 249.84 224.65 250.79 230.12 255.46 242.07 254.51 241.12 242.56 235.65 237.89" style="fill: #99c5c6;"/>
  </g>
  <g>
    <path d="M234.86,327.31c-4.39-4.32-8.24-9.22-11.02-14.77-2.79-5.51-4.28-11.85-3.58-18.04.67-6.2,3.52-11.88,7.27-16.56,3.79-4.69,8.41-8.57,13.28-11.95-4.65,3.69-8.97,7.84-12.36,12.64-3.36,4.79-5.65,10.35-5.89,16.05-.27,5.7,1.44,11.32,4.33,16.21,2.87,4.92,6.76,9.26,11.09,13h0c.97.84,1.08,2.3.24,3.27s-2.3,1.08-3.27.24c-.04-.03-.08-.07-.11-.1Z" style="fill: #99c5c6;"/>
    <polygon points="234.4 312.63 235.36 324.58 223.4 325.53 228.88 330.2 240.83 329.25 239.88 317.3 234.4 312.63" style="fill: #99c5c6;"/>
  </g>
  <g>
    <path d="M381.83,92.91l2.17-18.07,2.17,18.07c.14,1.2-.71,2.29-1.91,2.44-1.2.14-2.29-.71-2.44-1.91-.02-.17-.02-.36,0-.52Z" style="fill: #f0a758;"/>
    <polygon points="394.17 80.96 384 91.14 373.83 80.96 373.83 89.6 384 99.77 394.17 89.6 394.17 80.96" style="fill: #f0a758;"/>
  </g>
  <g>
    <path d="M381.83,161.94l2.17-18.07,2.17,18.07c.14,1.2-.71,2.29-1.91,2.44-1.2.14-2.29-.71-2.44-1.91-.02-.17-.02-.36,0-.52Z" style="fill: #f0a758;"/>
    <polygon points="394.17 149.99 384 160.17 373.83 149.99 373.83 158.63 384 168.8 394.17 158.63 394.17 149.99" style="fill: #f0a758;"/>
  </g>
  <g>
    <path d="M381.83,229.51l2.17-18.07,2.17,18.07c.14,1.2-.71,2.29-1.91,2.44-1.2.14-2.29-.71-2.44-1.91-.02-.17-.02-.36,0-.52Z" style="fill: #f0a758;"/>
    <polygon points="394.17 217.56 384 227.74 373.83 217.56 373.83 226.2 384 236.37 394.17 226.2 394.17 217.56" style="fill: #f0a758;"/>
  </g>
  <g>
    <line x1="369.17" y1="556.87" x2="398.83" y2="556.87" style="fill: none; stroke: #f0a758; stroke-linecap: round; stroke-miterlimit: 10; stroke-width: 6px;"/>
    <polygon points="381.12 567.04 370.95 556.87 381.12 546.7 372.49 546.7 362.32 556.87 372.49 567.04 381.12 567.04" style="fill: #f0a758;"/>
    <polygon points="386.88 567.04 397.05 556.87 386.88 546.7 395.51 546.7 405.69 556.87 395.51 567.04 386.88 567.04" style="fill: #f0a758;"/>
  </g>
  <g>
    <line x1="248.96" y1="460.48" x2="269.93" y2="481.45" style="fill: none; stroke: #f0a758; stroke-linecap: round; stroke-miterlimit: 10; stroke-width: 6px;"/>
    <polygon points="250.22 476.12 250.21 461.73 264.6 461.74 258.5 455.63 244.11 455.63 244.11 470.02 250.22 476.12" style="fill: #f0a758;"/>
    <polygon points="254.29 480.19 268.68 480.2 268.67 465.81 274.78 471.91 274.78 486.3 260.39 486.3 254.29 480.19" style="fill: #f0a758;"/>
  </g>
  <g>
    <line x1="489.08" y1="385.92" x2="510.05" y2="406.89" style="fill: none; stroke: #f0a758; stroke-linecap: round; stroke-miterlimit: 10; stroke-width: 6px;"/>
    <polygon points="490.34 401.57 490.34 387.18 504.73 387.18 498.62 381.07 484.23 381.07 484.23 395.46 490.34 401.57" style="fill: #f0a758;"/>
    <polygon points="494.41 405.63 508.8 405.64 508.79 391.25 514.9 397.35 514.9 411.74 500.52 411.74 494.41 405.63" style="fill: #f0a758;"/>
  </g>
  <g>
    <line x1="495.3" y1="481.45" x2="516.27" y2="460.48" style="fill: none; stroke: #f0a758; stroke-linecap: round; stroke-miterlimit: 10; stroke-width: 6px;"/>
    <polygon points="510.94 480.19 496.56 480.2 496.56 465.81 490.45 471.91 490.45 486.3 504.84 486.3 510.94 480.19" style="fill: #f0a758;"/>
    <polygon points="515.01 476.12 515.02 461.73 500.63 461.74 506.73 455.63 521.12 455.63 521.12 470.02 515.01 476.12" style="fill: #f0a758;"/>
  </g>
  <g>
    <line x1="251.45" y1="411.42" x2="272.42" y2="390.45" style="fill: none; stroke: #f0a758; stroke-linecap: round; stroke-miterlimit: 10; stroke-width: 6px;"/>
    <polygon points="267.09 410.16 252.7 410.16 252.71 395.77 246.6 401.88 246.6 416.26 260.98 416.26 267.09 410.16" style="fill: #f0a758;"/>
    <polygon points="271.16 406.09 271.16 391.7 256.77 391.7 262.88 385.6 277.27 385.6 277.27 399.98 271.16 406.09" style="fill: #f0a758;"/>
  </g>
</svg>