<svg width="80" height="80" viewBox="0 0 80 80" fill="none" xmlns="http://www.w3.org/2000/svg">
<path d="M27.1173 14.7851L39.8475 27.3249C33.0113 34.1611 28.4204 38.752 27.6386 39.5038L27.2476 39.1129C24.1202 35.9153 22.2357 33.6399 20.9627 30.8633C20.0505 28.9187 19.2987 26.513 18.9379 22.9545C21.0228 20.8696 23.8195 18.0729 27.1173 14.7751" fill="white"/>
<path d="M41.7521 25.4003C38.0433 21.6815 33.733 17.3913 29.0619 12.7002C33.0213 8.72071 37.3015 4.43052 41.7521 0C46.4432 4.69114 50.7735 8.99135 54.4523 12.6701C54.4823 12.7002 54.4523 12.7002 54.4523 12.7002C50.0217 17.1307 45.7215 21.4309 41.7521 25.4003Z" fill="white"/>
<path d="M68.0746 50.8007C71.4626 47.3525 74.9709 43.4432 77.547 38.1406C75.011 33.1588 71.6531 29.48 68.4354 26.1621C68.4053 26.1621 66.6813 24.438 63.7042 21.471C63.7042 21.4409 63.7142 21.4209 63.7142 21.3908C61.7897 19.4763 59.7748 17.3713 56.8779 14.4744L44.1779 27.1745C50.2322 33.1988 54.0813 37.1482 55.2742 38.3511C55.2541 38.3711 55.2742 38.3511 55.2341 38.3912C55.4948 38.6518 55.625 38.7821 55.625 38.7821C58.7524 41.9797 60.6369 44.2551 61.9099 47.0217C62.8221 48.9763 63.5739 51.382 63.9247 54.9405C66.571 52.3042 68.0645 50.8007 68.0645 50.8007" fill="white"/>
<path d="M53.4298 65.2249L40.6996 52.6851C47.5359 45.8489 52.1267 41.258 52.9086 40.5062L53.2995 40.8971C56.4269 44.0847 58.3114 46.3701 59.5845 49.1367C60.4966 51.0813 61.2484 53.487 61.6093 57.0455C59.5243 59.1304 56.7277 61.9271 53.4298 65.2249Z" fill="white"/>
<path d="M38.7951 54.5997C42.5039 58.3185 46.8141 62.6087 51.4852 67.2998C47.5258 71.2793 43.2457 75.5695 38.7951 80C34.104 75.3089 29.7736 71.0086 26.0949 67.3299C26.0648 67.2998 26.0949 67.2998 26.0949 67.2998C30.5254 62.8693 34.8257 58.5691 38.7951 54.5997Z" fill="white"/>
<path d="M12.4726 29.2094C9.08452 32.6576 5.57612 36.5668 3 41.8694C5.53602 46.8513 8.89409 50.53 12.1117 53.8479C12.1418 53.8479 13.8659 55.572 16.8429 58.539C16.8429 58.5691 16.8329 58.5891 16.8329 58.6192C18.7575 60.5338 20.7722 62.6388 23.6691 65.5356L36.3693 52.8355C30.3149 46.8112 26.4658 42.8618 25.273 41.6589C25.293 41.6389 25.2729 41.6589 25.313 41.6188C25.0524 41.3582 24.9221 41.2279 24.9221 41.2279C21.7946 38.0303 19.9103 35.7549 18.6372 32.9883C17.7251 31.0337 16.9733 28.628 16.6224 25.0695C13.9762 27.7058 12.4826 29.2094 12.4826 29.2094" fill="white"/>
</svg>
