<?xml version="1.0" encoding="utf-8"?>
<!-- Generator: Adobe Illustrator 27.8.1, SVG Export Plug-In . SVG Version: 6.00 Build 0)  -->
<svg version="1.1" id="Capa_1" xmlns="http://www.w3.org/2000/svg" xmlns:xlink="http://www.w3.org/1999/xlink" x="0px" y="0px"
	 width="80px" height="80px" viewBox="0 0 80 80" style="enable-background:new 0 0 80 80;" xml:space="preserve">
<style type="text/css">
	.st0{clip-path:url(#SVGID_00000129165391720976338460000011947719338386324921_);}
</style>
<g>
	<defs>
		<rect id="SVGID_1_" width="80" height="80"/>
	</defs>
	<clipPath id="SVGID_00000030468201873612149440000018264828313157351818_">
		<use xlink:href="#SVGID_1_"  style="overflow:visible;"/>
	</clipPath>
	<g style="clip-path:url(#SVGID_00000030468201873612149440000018264828313157351818_);">
		<path d="M40,55c8.3,0,15.1-6.8,15.1-15.1v-37c-1.7-0.7-3.4-1.3-5.2-1.7V40c0,5.4-4.4,9.8-9.8,9.8c-5.4,0-9.8-4.4-9.8-9.8V1.2
			c-1.8,0.5-3.5,1-5.2,1.7v37C24.9,48.3,31.7,55,40,55L40,55z"/>
		<path d="M40,46.7c3.7,0,6.8-3,6.8-6.8V0.5c-1.7-0.3-3.5-0.5-5.2-0.5v39.9c0,0.8-0.7,1.5-1.5,1.5c-0.8,0-1.5-0.7-1.5-1.5V0
			c-1.8,0.1-3.5,0.3-5.2,0.5v39.4C33.2,43.7,36.2,46.7,40,46.7L40,46.7z"/>
		<path d="M40,63.4c12.9,0,23.4-10.5,23.4-23.4V7.5c-1.7-1.2-3.4-2.3-5.3-3.2v35.6c0,10-8.1,18.1-18.1,18.1S21.8,50,21.8,39.9V4.3
			c-1.8,0.9-3.6,2-5.3,3.2V40C16.6,52.9,27.1,63.4,40,63.4L40,63.4z"/>
		<path d="M40,71.7c17.5,0,31.7-14.2,31.7-31.7V15.6c-1.6-2-3.3-3.9-5.3-5.6v30c0,14.6-11.8,26.5-26.5,26.5S13.5,54.6,13.5,39.9V10
			c-1.9,1.7-3.7,3.6-5.3,5.6v24.3C8.3,57.5,22.5,71.7,40,71.7z"/>
		<path d="M74.8,20.3V40c0,19.2-15.6,34.8-34.8,34.8C20.8,74.8,5.2,59.2,5.2,40l-0.1-0.3V20.5C1.8,26.2,0,32.9,0,40
			c0,22.1,17.9,40,40,40c22.1,0,40-17.9,40-40C80,32.8,78.1,26.1,74.8,20.3L74.8,20.3z"/>
	</g>
</g>
</svg>
