<svg width="80" height="80" viewBox="0 0 80 80" fill="none" xmlns="http://www.w3.org/2000/svg">
<g clip-path="url(#clip0_538_5650)">
<path d="M39.995 55.027C48.3227 55.027 55.077 48.2726 55.077 39.9449V2.9162C53.3834 2.22473 51.6397 1.64349 49.8459 1.19254V39.9549C49.8459 45.3865 45.4366 49.7958 40.005 49.7958C34.5735 49.7958 30.164 45.3865 30.164 39.9549V1.19254C28.3702 1.64349 26.6165 2.22473 24.9229 2.9162V39.9549C24.9229 48.2826 31.6673 55.037 40.005 55.037L39.995 55.027Z" fill="white"/>
<path d="M39.9951 46.7193C43.733 46.7193 46.7695 43.6929 46.7695 39.9449V0.54115C45.0558 0.250532 43.3021 0.0701491 41.5283 0V39.9449C41.5283 40.7867 40.8368 41.4681 39.9951 41.4681C39.1533 41.4681 38.4618 40.7867 38.4618 39.9449V0C36.688 0.0701491 34.9343 0.250532 33.2206 0.54115V39.9449C33.2206 43.6828 36.2471 46.7193 39.985 46.7193H39.9951Z" fill="white"/>
<path d="M39.995 63.3647C52.9225 63.3647 63.4048 52.8824 63.4048 39.9549V7.53601C61.7413 6.33345 59.9875 5.26117 58.1436 4.31917V39.9449C58.1436 49.9662 50.0163 58.0935 39.995 58.0935C29.9737 58.0935 21.8465 49.9662 21.8465 39.9449V4.31917C20.0126 5.26117 18.2589 6.33345 16.5953 7.53601V39.9549C16.5953 52.8824 27.0776 63.3647 40.0051 63.3647H39.995Z" fill="white"/>
<path d="M39.9951 71.6824C57.5223 71.6824 71.7225 57.4722 71.7225 39.9449V15.6232C70.1592 13.5789 68.3955 11.6949 66.4614 9.99124V39.9449C66.4614 54.566 54.6161 66.4212 39.985 66.4212C25.3539 66.4212 13.5087 54.566 13.5087 39.9449V9.99124C11.5846 11.6949 9.82089 13.5789 8.25757 15.6232V39.9449C8.25757 57.4722 22.4678 71.6824 39.9951 71.6824Z" fill="white"/>
<path d="M74.799 20.2631V39.9549C74.799 59.1758 59.2159 74.7589 39.995 74.7589C20.7742 74.7589 5.19109 59.1758 5.19109 39.9549L5.07084 39.6342V20.4735C1.84398 26.2458 0 32.8899 0 39.965C0 62.0519 17.9081 79.96 39.995 79.96C62.082 79.96 80 62.0519 80 39.965C80 32.7997 78.096 26.0855 74.809 20.2731L74.799 20.2631Z" fill="white"/>
</g>
<defs>
<clipPath id="clip0_538_5650">
<rect width="80" height="80" fill="white"/>
</clipPath>
</defs>
</svg>
